<svg version="1.2" xmlns="http://www.w3.org/2000/svg" viewBox="0 0 640 640" width="160" height="160">
	<title>New Project</title>
	<style>
		.s0 { fill: #000000 } 
	</style>
	<path id="Shape 1" fill-rule="evenodd" class="s0" d="m321 628c-160.2 0-291.5-121.8-306.6-278h53.1c13.9 127.8 121.9 227 253.5 227 24 0 47.1-3.3 69.1-9.4q-0.1-1.8-0.1-3.6c0-38.2 30.8-69 69-69 14.1 0 27.3 4.2 38.2 11.5 42.2-40.4 70.6-95.1 77.3-156.5h53.1c-7.7 79.2-45.1 149.5-101.1 199.6 1 4.6 1.5 9.5 1.5 14.4 0 38.2-30.8 69-69 69-18.2 0-34.8-7-47.1-18.6-28.8 8.8-59.3 13.6-90.9 13.6zm0-616c46.1 0 89.7 10.1 128.9 28.1l-27.1 48c-31.2-13.6-65.6-21.1-101.8-21.1-130.9 0-238.4 98.2-253.3 225h-53.4c14.1-157.2 145.8-280 306.7-280zm306.7 280h-53.4c-8.4-71.3-46-133.6-100.7-174.4l27.1-47.9c70.6 50.8 118.8 130.7 127 222.3zm-136 272c0-18.1-14.6-32.7-32.7-32.7-18.1 0-32.7 14.6-32.7 32.7 0 18.1 14.6 32.7 32.7 32.7 18.1 0 32.7-14.6 32.7-32.7z"/>
</svg>